<?xml version="1.0" encoding="UTF-8"?>
<svg
  xmlns="http://www.w3.org/2000/svg"
  viewBox="0 0 200.73 53.13"
>
  <g fill="#1a1917">
    <path
      d="m200.23.5v11.23l-3.24,23.4h-5.76l-3.24-23.4V.5h12.24Zm-12.24,46.01c0-3.67,2.66-6.12,6.12-6.12s6.12,2.45,6.12,6.12-2.74,6.12-6.12,6.12-6.12-2.38-6.12-6.12Z"
    />
    <path
      d="m181.94.5v10.58l-23.55,30.17v.14h24.27v10.59h-40.11v-10.59l23.55-30.17v-.14h-22.11V.5h37.95Z"
    />
    <path
      d="m106.99.5v20.88L124.92.5h15.12l-19.59,22.68,20.31,28.8h-15.12l-13.46-19.51-5.18,5.9v13.61h-12.96V.5h12.96Z"
    />
    <path
      d="m84.24,20.23v10.58h-22.47v10.58h26.5v10.59h-39.46V.5h39.03v10.58h-26.07v9.14h22.47Z"
    />
    <path
      d="m.5.5h24.27c11.45,0,18.36,5.26,18.36,14.98,0,6.84-4.03,11.16-10.44,12.6v.14c12.89,2.23,8.21,22.18,11.16,23.04v.72h-13.46c-2.52-2.16,2.16-17.93-8.86-17.93h-8.06v17.93H.5V.5Zm12.96,22.97h8.79c5.18,0,7.92-1.87,7.92-6.19s-2.74-6.19-7.92-6.19h-8.79v12.38Z"
    />
  </g>
</svg>
