<svg fill="#FFFFFF" xmlns="http://www.w3.org/2000/svg"  viewBox="0 0 50 50" width="50px" height="50px"><path d="M25,2C12.32,2,2,12.32,2,25s10.32,23,23,23s23-10.32,23-23S37.68,2,25,2z M14.23,30.74c-3.51-3.51-3.51-9.24,0-12.73 l7.55-7.56c0.34-0.35,0.8-0.55,1.29-0.58c0.54-0.01,1.04,0.19,1.41,0.58c0.74,0.75,0.71,1.94-0.03,2.67l-7.55,7.55 c-2.06,2.06-2.06,5.34,0,7.4c2.05,2.06,5.33,2.06,7.39,0l3.78-3.77c0.02-0.03,0.03-0.04,0.06-0.06c0.75-0.72,1.94-0.7,2.67,0.06 c0.72,0.75,0.69,1.94-0.06,2.67l-3.78,3.77C23.47,34.24,17.73,34.24,14.23,30.74z M35.77,32l-7.55,7.55 c-0.01,0.02-0.03,0.03-0.06,0.06c-0.74,0.71-1.94,0.69-2.66-0.06c-0.73-0.76-0.7-1.95,0.05-2.68l7.55-7.54 c2.06-2.06,2.06-5.35,0-7.41c-2.05-2.04-5.33-2.04-7.39,0l-3.78,3.79c-0.02,0.01-0.03,0.04-0.06,0.05 c-0.75,0.72-1.94,0.69-2.67-0.05c-0.72-0.76-0.69-1.95,0.06-2.67l3.78-3.78c1.74-1.76,4.06-2.63,6.37-2.63 c2.3,0,4.61,0.87,6.36,2.63C39.28,22.76,39.28,28.5,35.77,32z"/></svg>